<?xml version="1.0" standalone="no"?>
<!DOCTYPE svg PUBLIC "-//W3C//DTD SVG 20010904//EN"
 "http://www.w3.org/TR/2001/REC-SVG-20010904/DTD/svg10.dtd">
<svg version="1.0" xmlns="http://www.w3.org/2000/svg"
 width="512.000000pt" height="512.000000pt" viewBox="0 0 512.000000 512.000000"
 preserveAspectRatio="xMidYMid meet">
<metadata>
Created by potrace 1.11, written by Peter Selinger 2001-2013
</metadata>
<g transform="translate(0.000000,512.000000) scale(0.100000,-0.100000)"
fill="#000000" stroke="none">
<path d="M1816 3905 c-313 -525 -572 -955 -575 -955 -4 0 -101 217 -216 483
-294 679 -265 616 -280 587 -9 -19 -518 -1187 -726 -1667 l-18 -43 713 0 713
0 12 43 c7 23 25 59 39 79 15 20 234 210 487 422 484 406 499 416 595 416 96
0 111 -10 595 -416 252 -212 471 -402 486 -422 15 -20 33 -56 40 -79 l12 -43
715 0 c570 0 712 3 705 13 -6 6 -268 444 -583 972 -315 528 -578 968 -585 978
-11 16 -50 -44 -309 -478 -163 -272 -299 -495 -301 -495 -3 0 -214 351 -471
780 -257 429 -469 780 -473 780 -3 -1 -262 -431 -575 -955z m521 -319 c-2 -5
-223 -209 -493 -452 -434 -393 -490 -441 -502 -426 -7 9 -10 22 -8 29 3 7 175
297 382 643 l377 631 123 -208 c68 -114 122 -212 121 -217z m1566 -151 c52
-88 97 -166 99 -172 3 -10 -399 -382 -414 -383 -4 0 -34 45 -67 100 l-60 99
161 271 c127 211 164 268 174 258 6 -7 54 -85 107 -173z m-3128 -145 l32 -76
-244 -309 c-134 -170 -246 -312 -249 -314 -9 -9 8 29 186 439 95 217 177 406
182 420 12 28 12 27 93 -160z"/>
<path d="M2504 3127 c-12 -7 -224 -182 -472 -389 -456 -383 -472 -399 -472
-462 0 -35 38 -86 77 -103 30 -12 44 -13 75 -4 26 8 163 116 443 351 l405 340
410 -344 c439 -368 444 -371 514 -342 39 16 76 67 76 104 0 60 -32 90 -477
464 -245 205 -455 378 -467 385 -11 7 -37 12 -56 12 -19 0 -45 -5 -56 -12z"/>
<path d="M2268 2408 l-288 -242 0 -463 0 -463 580 0 580 0 0 463 0 463 -289
242 c-159 133 -290 242 -292 242 -2 -1 -133 -109 -291 -242z m232 -408 l0
-120 -120 0 -120 0 0 120 0 120 120 0 120 0 0 -120z m360 0 l0 -120 -120 0
-120 0 0 120 0 120 120 0 120 0 0 -120z m-360 -360 l0 -120 -120 0 -120 0 0
120 0 120 120 0 120 0 0 -120z m360 0 l0 -120 -120 0 -120 0 0 120 0 120 120
0 120 0 0 -120z"/>
<path d="M25 2121 c40 -37 2524 -1861 2535 -1861 11 0 2495 1824 2535 1861 19
19 0 19 -713 19 l-733 0 -24 -28 c-12 -15 -45 -39 -71 -52 -66 -34 -169 -35
-231 -2 l-43 22 -2 -487 -3 -488 -715 0 -715 0 -3 488 c-1 269 -6 487 -10 485
-101 -53 -186 -57 -269 -15 -28 14 -60 38 -71 52 l-20 25 -733 0 c-714 0 -733
0 -714 -19z"/>
</g>
</svg>
