<?xml version="1.0" encoding="iso-8859-1"?>
<!-- Generator: Adobe Illustrator 16.0.0, SVG Export Plug-In . SVG Version: 6.00 Build 0)  -->
<!DOCTYPE svg PUBLIC "-//W3C//DTD SVG 1.1//EN" "http://www.w3.org/Graphics/SVG/1.1/DTD/svg11.dtd">
<svg xmlns="http://www.w3.org/2000/svg" xmlns:xlink="http://www.w3.org/1999/xlink" version="1.1" id="Capa_1" x="0px" y="0px" width="512px" height="512px" viewBox="0 0 32.532 32.531" style="enable-background:new 0 0 32.532 32.531;" xml:space="preserve">
<g>
	<g>
		<path d="M9.65,16.777l5.575-4.675c0.583-0.487,1.499-0.487,2.082,0l5.574,4.675c0.338,0.283,0.529,0.678,0.568,1.086h9.082    L24.995,5.249l-3.805,6.367L15.204,1.598L7.876,13.859L4.807,6.797L0,17.863h9.082C9.121,17.455,9.312,17.061,9.65,16.777z     M24.067,9.489l1.408,2.354l-2.695,2.436l-0.787-1.318L24.067,9.489z M1.924,16.166l2.485-5.719l0.721,1.66L1.924,16.166z     M8.445,15.167l4.85-8.114L14.9,9.741l-6.327,5.722L8.445,15.167z" fill="#FFFFFF"/>
		<path d="M23.081,19.058c-0.307,0.368-0.76,0.579-1.238,0.579c-0.371,0-0.73-0.13-1.02-0.363v6.238H11.71v-6.239    c-0.655,0.532-1.712,0.438-2.259-0.214c-0.029-0.035-0.049-0.074-0.075-0.111H0l16.266,11.986l16.266-11.986h-9.375    C23.129,18.984,23.11,19.022,23.081,19.058z" fill="#FFFFFF"/>
		<path d="M12.549,18.796v5.876h7.434v-5.876l-3.717-3.116L12.549,18.796z M15.876,22.869H14.35v-1.523h1.526V22.869z     M15.876,20.565H14.35v-1.524h1.526V20.565z M16.655,19.041h1.527v1.524h-1.527V19.041z M16.655,21.346h1.527v1.523h-1.527V21.346    z" fill="#FFFFFF"/>
		<path d="M22.438,18.518c0.277-0.33,0.232-0.82-0.096-1.098l-5.576-4.674c-0.29-0.242-0.712-0.242-1.001,0l-5.574,4.674    c-0.33,0.277-0.373,0.768-0.097,1.098c0.155,0.184,0.375,0.278,0.599,0.278c0.176,0,0.353-0.061,0.499-0.183l5.074-4.254    l5.076,4.256C21.67,18.893,22.163,18.848,22.438,18.518z" fill="#FFFFFF"/>
	</g>
</g>
<g>
</g>
<g>
</g>
<g>
</g>
<g>
</g>
<g>
</g>
<g>
</g>
<g>
</g>
<g>
</g>
<g>
</g>
<g>
</g>
<g>
</g>
<g>
</g>
<g>
</g>
<g>
</g>
<g>
</g>
</svg>
